<?xml version="1.0" encoding="UTF-8"?>
<svg class="w-6 h-6 mx-2" version="1.1" viewBox="85 -20 530 560" xmlns="http://www.w3.org/2000/svg" xmlns:xlink="http://www.w3.org/1999/xlink">
    <g>
    <path d="m239.12 143.36c-2.8008 0-5.6016 2.2383-5.6016 5.6016v8.3984c0 2.8008 2.2383 5.6016 5.6016 5.6016 2.8008 0 5.6016-2.2383 5.6016-5.6016v-8.3984c-0.003906-3.3594-2.8008-5.6016-5.6016-5.6016z"/>
    <path d="m460.88 162.96c2.8008 0 5.6016-2.2383 5.6016-5.6016v-8.3984c0-2.8008-2.2383-5.6016-5.6016-5.6016-3.3594 0-5.6016 2.2383-5.6016 5.6016v8.3984c0.003906 2.8008 2.8008 5.6016 5.6016 5.6016z"/>
    <path d="m350 274.4c-8.3984 0-14.559 6.7188-14.559 14.559 0 7.8398 6.7188 14.559 14.559 14.559s14.559-6.7188 14.559-14.559c0-7.8359-6.7188-14.559-14.559-14.559z"/>
    <path d="m296.24 291.2c0-18.48-15.121-33.039-33.039-33.039-17.922 0-33.039 15.121-33.039 33.039 0 18.48 15.121 33.039 33.039 33.039 17.922 0 33.039-14.559 33.039-33.039zm-33.598 19.602c-10.641 0-19.602-8.9609-19.602-19.602s8.9609-19.602 19.602-19.602 19.602 8.9609 19.602 19.602c-0.003907 10.641-8.4023 19.602-19.602 19.602z"/>
    <path d="m437.36 258.16c-18.48 0-33.039 15.121-33.039 33.039 0 18.48 15.121 33.039 33.039 33.039 18.48 0 33.039-15.121 33.039-33.039s-15.117-33.039-33.039-33.039zm0 52.641c-10.641 0-19.602-8.9609-19.602-19.602s8.9609-19.602 19.602-19.602 19.602 8.9609 19.602 19.602c-0.5625 10.641-8.9609 19.602-19.602 19.602z"/>
    <path d="m629.44 400.96c0-2.2383 0-4.4805 0.55859-7.8398v-1.1211-5.6016-2.2383c0-23.52-2.2383-64.961-14.559-124.88-20.719-101.92-50.398-136.08-51.52-137.76-2.8008-2.8008-6.7188-3.9219-9.5195-4.4805-5.6016-10.078-19.602-17.359-35.84-17.359s-30.238 7.2812-35.84 16.801h-2.8008c-1.6797 0-3.3594 0.55859-5.0391 2.2383-1.1211 1.1211-2.2383 2.8008-2.2383 5.0391v1.1211h-25.199c-2.8008-5.0391-7.8398-7.8398-13.441-7.8398h-168c-5.6016 0-10.641 3.3594-13.441 7.8398h-25.758v-1.1211c0-1.6797-0.55859-3.3594-2.2383-5.0391-1.1211-1.1211-2.8008-2.2383-5.0391-2.2383h-2.8008c-5.6016-10.078-19.602-16.801-35.84-16.801-16.238 0-30.238 7.2812-35.84 17.359-1.6797 0-3.9219 0.55859-6.1602 2.2383-1.1211 0.55859-2.2383 1.6797-3.3594 2.8008-1.1211 1.6797-30.801 35.84-51.52 137.76-7.2812 36.398-11.762 70-14 100.24-0.003906 8.4023-0.003906 16.242-0.003906 24.641 0 6.1602 0 11.762 0.55859 16.801 0 2.8008 0.55859 6.1602 0.55859 8.9609v0.55859 0.55859c5.6016 28.559 30.238 49.281 59.359 49.281 21.84 0 42-11.762 52.641-31.359v-0.55859c1.1211-1.6797 3.9219-7.2812 7.8398-15.121 9.5195-17.922 16.238-32.48 19.602-42l11.762-33.039c1.1211-2.8008 3.3594-5.6016 6.1602-6.7188 9.5195 7.8398 21.281 12.32 33.602 12.32 12.879 0 25.762-5.0391 35.281-13.441h103.6c9.5195 8.9609 21.84 13.441 35.281 13.441 12.32 0 24.641-4.4805 33.602-12.32 2.8008 1.1211 5.0391 3.9219 6.1602 6.7188l11.762 33.039c4.4805 11.762 12.879 29.121 19.602 42 2.2383 4.4805 3.9219 7.8398 5.6016 10.641v0.55859l0.55859 0.55859c0.55859 1.1211 1.1211 2.2383 1.6797 3.3594v0.55859c0.55859 1.1211 1.1211 1.6797 1.6797 2.2383 1.1211 1.6797 1.6797 2.8008 2.8008 4.4805 0.55859 0.55859 1.1211 1.6797 2.2383 2.2383 1.1211 1.1211 2.2383 2.8008 3.3594 3.9219 0.55859 0.55859 1.6797 1.1211 2.2383 2.2383 1.1211 1.1211 2.2383 2.2383 3.3594 3.3594 1.1211 0.55859 1.6797 1.1211 2.8008 1.6797 1.1211 1.1211 2.2383 1.6797 3.9219 2.8008 1.1211 0.55859 2.2383 1.1211 3.3594 1.6797s2.8008 1.1211 3.9219 1.6797c1.1211 0.55859 2.8008 1.1211 3.9219 1.1211 1.1211 0.55859 2.2383 1.1211 3.3594 1.1211 1.6797 0.55859 3.3594 0.55859 5.0391 1.1211 1.1211 0 2.2383 0.55859 2.8008 0.55859 2.8008 0.55859 5.6016 0.55859 7.8398 0.55859 29.121 0 54.32-20.719 59.359-49.281v-0.55859c0-1.1211 0-1.6797 0.55859-2.8008 0-1.1211 0-2.2383 0.55859-3.3594 1.1133-1.1133 1.1133-2.2344 1.1133-3.3516zm-365.12-268.8c0-1.1211 0.55859-1.6797 1.6797-1.6797h168c1.1211 0 1.6797 0.55859 1.6797 1.6797v70c0 3.3594-2.8008 5.6016-5.6016 5.6016h-160.16c-3.3594 0-5.6016-2.8008-5.6016-5.6016zm-92.398 290.08s-0.5625 0 0 0c-8.3984 15.121-24.078 24.641-40.879 24.641-22.398 0-42-16.238-45.922-38.078 0-1.1211-0.55859-2.2383-0.55859-3.3594 0 0 0.55859 0 0.55859 0.55859 1.6797 1.1211 3.3594 2.8008 5.0391 3.9219 0 0 0.55859 0.55859 1.1211 0.55859 1.6797 1.1211 3.3594 2.2383 5.0391 2.8008 0.55859 0.55859 1.1211 0.55859 1.6797 1.1211 1.6797 1.1211 3.9219 1.6797 5.6016 2.8008 0 0 0.55859 0 0.55859 0.55859 2.2383 1.1211 4.4805 1.6797 6.7188 2.2383 0.55859 0 1.1211 0.55859 1.6797 0.55859 1.6797 0.55859 3.9219 1.1211 6.1602 1.6797 0.55859 0 1.1211 0.55859 1.6797 0.55859 2.8008 0.55859 5.0391 1.1211 7.8398 1.6797h1.6797c2.2383 0.55859 4.4805 0.55859 6.7188 0.55859h2.2383c2.8008 0 5.6016 0.55859 8.3984 0.55859 3.9219 0 7.8398 0 11.762-0.55859 1.1211 0 2.2383-0.55859 3.9219-0.55859 2.8008-0.55859 5.0391-0.55859 7.2812-1.1211h1.6797c0.003906-1.6758 0.003906-1.6758 0.003906-1.1172zm63.277-103.04c-7.8398-7.2812-11.762-17.359-11.762-28 0-21.84 17.359-39.199 39.199-39.199 21.84 0 39.199 17.359 39.199 39.199 0 2.8008 0 5.0391-0.55859 7.8398-1.6797 7.2812-5.0391 14.559-10.641 20.16-7.2812 7.2812-17.359 11.762-28 11.762-10.078-0.5625-19.598-4.4805-27.438-11.762zm174.16 0c-7.2812-7.2812-11.762-17.359-11.762-28 0-21.84 17.359-39.199 39.199-39.199s39.199 17.359 39.199 39.199v3.9219c-1.1211 8.9609-5.0391 17.359-11.762 24.078-7.2812 7.2812-17.359 11.199-27.441 11.199-10.074 0-20.152-3.918-27.434-11.199zm80.641 15.121c-1.6797-5.0391-5.0391-9.5195-9.5195-12.32 0 0 0-0.55859 0.55859-0.55859 0-0.55859 0.55859-0.55859 0.55859-1.1211 0.55859-1.1211 1.1211-2.2383 1.6797-2.8008 0-0.55859 0.55859-1.1211 0.55859-1.1211 0.55859-1.1211 1.1211-2.2383 1.6797-3.3594 0-0.55859 0.55859-0.55859 0.55859-1.1211 0.55859-1.6797 1.1211-2.8008 1.6797-4.4805v-1.1211c0.55859-1.1211 0.55859-2.2383 1.1211-3.9219 0-0.55859 0-1.1211 0.55859-1.6797 0-1.1211 0.55859-2.2383 0.55859-3.3594v-1.6797-5.0391c0-29.121-23.52-53.199-53.199-53.199-29.121 0-53.199 23.52-53.199 53.199 0 2.2383 0 3.9219 0.55859 6.1602v1.6797c0 1.6797 0.55859 2.8008 0.55859 4.4805 0 0.55859 0.55859 1.1211 0.55859 1.6797 0.55859 1.6797 1.1211 3.3594 1.6797 4.4805 0 0.55859 0 0.55859 0.55859 1.1211 0.55859 1.6797 1.6797 3.9219 2.8008 5.6016v0.55859h-81.188v-0.55859c1.1211-1.6797 1.6797-3.3594 2.8008-5.6016 0-0.55859 0-0.55859 0.55859-1.1211 0.55859-1.6797 1.1211-2.8008 1.6797-4.4805 0-0.55859 0.55859-1.1211 0.55859-1.6797 0.55859-1.6797 0.55859-2.8008 0.55859-4.4805v-1.6797c0-2.2383 0.55859-3.9219 0.55859-6.1602 0-29.121-23.52-53.199-53.199-53.199-29.676 0.003906-52.637 24.641-52.637 53.762v5.0391 1.6797c0 1.1211 0.55859 2.2383 0.55859 3.3594 0 0.55859 0 1.1211 0.55859 1.6797 0 1.1211 0.55859 2.2383 1.1211 3.3594v1.1211c0.55859 1.6797 1.1211 2.8008 1.6797 4.4805 0 0.55859 0.55859 0.55859 0.55859 1.1211 0.55859 1.1211 1.1211 2.2383 1.6797 3.3594 0 0.55859 0.55859 1.1211 0.55859 1.6797 0.55859 1.1211 1.1211 1.6797 1.6797 2.8008 0 0.55859 0.55859 0.55859 0.55859 1.1211v0.55859c-4.4805 2.8008-7.8398 7.2812-9.5195 12.32l-11.762 33.039c-2.8008 8.3984-8.9609 21.281-17.359 37.52-1.1211 0.55859-2.2383 0.55859-3.3594 1.1211-1.1211 0.55859-2.2383 0.55859-3.3594 1.1211-1.6797 0.55859-3.3594 0.55859-5.0391 1.1211-1.1211 0-2.2383 0.55859-3.3594 0.55859-1.6797 0.55859-3.9219 0.55859-5.6016 0.55859-1.1211 0-1.6797 0-2.8008 0.55859-2.8008 0-6.1602 0.55859-8.9609 0.55859h-5.6016-1.6797-3.9219-2.2383c-1.1211 0-2.2383 0-3.3594-0.55859-0.55859 0-1.1211 0-2.2383-0.55859-1.1211 0-2.2383-0.55859-3.3594-0.55859-0.55859 0-1.6797-0.55859-2.2383-0.55859-1.1211 0-2.2383-0.55859-2.8008-0.55859-0.55859 0-1.1211-0.55859-2.2383-0.55859-1.1211 0-1.6797-0.55859-2.8008-0.55859-0.55859 0-1.1211-0.55859-2.2383-0.55859-1.1211-0.55859-1.6797-0.55859-2.8008-1.1211-0.55859 0-1.1211-0.55859-1.6797-0.55859-1.1211-0.55859-1.6797-0.55859-2.2383-1.1211-0.55859 0-1.1211-0.55859-1.6797-0.55859-0.55859-0.55859-1.6797-0.55859-2.2383-1.1211-0.55859-0.55859-1.1211-0.55859-1.6797-1.1211-0.55859-0.55859-1.6797-0.55859-2.2383-1.1211-0.003906-2.2422-0.003906-2.2422-0.5625-2.8047-0.55859-0.55859-1.1211-1.1211-2.2383-1.1211-0.55859-0.55859-1.1211-0.55859-1.6797-1.1211-0.55859-0.55859-1.1211-1.1211-1.6797-1.1211-0.55859-0.55859-1.1211-0.55859-1.1211-1.1211l-1.6797-1.6797c-0.55859-0.55859-0.55859-0.55859-1.1211-1.1211-0.55859-0.55859-1.1211-1.1211-1.1211-1.6797l-1.1211-1.1211c-0.55859-0.55859-0.55859-1.1211-1.1211-1.6797-0.55859-0.55859-0.55859-1.1211-0.55859-1.1211 0-0.55859-0.55859-0.55859-0.55859-1.1211 0-7.2812 0-14.559 0.55859-22.398 1.6797-29.672 6.1602-62.711 13.441-98.555 19.602-97.441 48.16-131.04 48.16-131.04 0.55859-0.55859 1.1211-0.55859 2.2383-0.55859h66.641c1.1211 2.8008 3.3594 6.1602 6.1602 7.2812 1.1211 0.55859 2.2383 0.55859 3.3594 0.55859h26.879v63.281c0 10.641 8.3984 19.039 19.602 19.039h160.16c10.641 0 19.602-8.3984 19.602-19.039v-62.723h26.879c2.2383 0 4.4805-1.1211 6.1602-2.8008 1.6797-1.6797 2.2383-3.3594 3.3594-5.6016l64.402 0.003907c1.1211 0 2.2383 0.55859 2.2383 0.55859 0.55859 0.55859 28.559 34.16 48.16 131.6 11.762 57.121 14 97.441 14 120.4-8.3984 15.68-34.719 27.441-64.398 27.441-11.762 0-22.961-1.6797-33.039-5.0391-6.1602-11.762-13.441-26.879-17.359-37.52zm87.359 111.44c-2.8008 0.55859-5.6016 0.55859-8.3984 0.55859-2.2383 0-4.4805 0-6.1602-0.55859-3.9219-0.55859-8.3984-1.6797-11.762-3.3594-9.5195-3.9219-17.359-11.199-22.398-20.16v-0.55859s0-0.55859-0.55859-0.55859c7.8398 1.6797 16.238 2.2383 24.078 2.2383 25.762 0 48.719-7.2812 63.281-19.039 0 1.1211 0 2.2383-0.55859 3.3594-3.3633 20.156-18.484 34.715-37.523 38.078z"/>
    <path d="m175.84 202.16-6.7188-6.1602c-2.2383-1.6797-5.0391-2.8008-7.8398-2.8008h-12.32c-2.2383 0-3.9219 1.6797-3.9219 3.9219v15.68c0 2.2383 1.6797 3.9219 3.9219 3.9219h12.879c2.8008 0 5.6016-1.1211 7.8398-2.8008l6.7188-6.1602c1.6797-1.1211 1.6797-3.9219-0.55859-5.6016z"/>
    <path d="m196 196.56-6.7188 6.1602c-1.6797 1.6797-1.6797 4.4805 0 5.6016l6.7188 6.1602c2.2383 1.6797 5.0391 2.8008 7.8398 2.8008h12.32c2.2383 0 3.9219-1.6797 3.9219-3.9219v-15.121c0-2.2383-1.6797-3.9219-3.9219-3.9219h-12.879c-2.2422-0.55469-5.043 0.5625-7.2812 2.2422z"/>
    <path d="m185.36 212.24c-1.6797-1.6797-4.4805-1.6797-5.6016 0l-6.1602 6.7188c-1.6758 2.2422-2.7969 5.043-2.7969 7.8438v12.32c0 2.2383 1.6797 3.9219 3.9219 3.9219h15.121c2.2383 0 3.9219-1.6797 3.9219-3.9219v-12.879c0-2.8008-1.1211-5.6016-2.8008-7.8398z"/>
    <path d="m179.76 198.8c1.6797 1.6797 4.4805 1.6797 5.6016 0l6.1602-6.7188c1.6797-2.2383 2.8008-5.0391 2.8008-7.8398v-12.32c0-2.2383-1.6797-3.9219-3.9219-3.9219h-15.121c-2.2383 0-3.9219 1.6797-3.9219 3.9219v12.879c0 2.8008 1.1211 5.6016 2.8008 7.8398z"/>
    <path d="m182.56 144.48c-33.602 0-61.039 27.441-61.039 61.039 0 33.602 27.441 61.039 61.039 61.039 33.602 0 61.039-27.441 61.039-61.039 0.003906-33.598-27.438-61.039-61.039-61.039zm0 108.08c-26.32 0-47.602-21.281-47.602-47.602 0-26.32 21.281-47.602 47.602-47.602 26.32 0 47.602 21.281 47.602 47.602 0 26.324-21.281 47.602-47.602 47.602z"/>
    <path d="m578.48 205.52c0-33.602-27.441-61.039-61.039-61.039-33.602 0-61.039 27.441-61.039 61.039 0 33.602 27.441 61.039 61.039 61.039s61.039-27.438 61.039-61.039zm-108.64 0c0-26.32 21.281-47.602 47.602-47.602 26.32 0 47.602 21.281 47.602 47.602 0 26.32-21.281 47.602-47.602 47.602-26.32 0-47.602-21.84-47.602-47.602z"/>
    <path d="m507.92 205.52c0-8.3984-6.7188-14.559-14.559-14.559-7.8398 0-14.559 6.7188-14.559 14.559 0 8.3984 6.7188 14.559 14.559 14.559 7.8359 0 14.559-6.7188 14.559-14.559z"/>
    <path d="m526.96 205.52c0 8.3984 6.7188 14.559 14.559 14.559 7.8398 0 14.559-6.7188 14.559-14.559 0-8.3984-6.7188-14.559-14.559-14.559-7.8398 0-14.559 6.1602-14.559 14.559z"/>
    <path d="m532 229.6c0 8.0391-6.5195 14.559-14.559 14.559-8.043 0-14.562-6.5195-14.562-14.559 0-8.043 6.5195-14.562 14.562-14.562 8.0391 0 14.559 6.5195 14.559 14.562"/>
    <path d="m517.44 196c8.3984 0 14.559-6.7188 14.559-14.559 0-8.3984-6.7188-14.559-14.559-14.559s-14.559 6.7188-14.559 14.559c-0.5625 7.8398 6.1562 14.559 14.559 14.559z"/>
    </g>
</svg>