<?xml version="1.0" encoding="UTF-8"?>
<svg class="w-6 h-6 mx-2" version="1.1" viewBox="105 20 490 495" xmlns="http://www.w3.org/2000/svg" xmlns:xlink="http://www.w3.org/1999/xlink">
    <g>
    <path d="m591.7 283.14c-4.7578-28.184-11.645-55.965-20.605-83.105-6.4727-19.078-14.238-37.695-23.242-55.719-1.1602-2.332-3.1602-4.1328-5.6016-5.0391l-6.4414-1.9023-1.0039-0.003906v-4.6484c0-0.9375-0.46094-1.8164-1.2344-2.3516-8.5508-5.6172-18.031-9.6758-28-11.984-10.844-1.8203-21.914-1.8203-32.758 0-1.2422 0.21484-2.1992 1.2148-2.3516 2.4648l-0.61719 5.2656c-7.1133-0.78516-8.6797 0-9.2383 0.50391l-0.83984 0.55859c-11.105-2.2852-22.32-4.0039-33.602-5.1523h-2.2383c-35.562-3.8633-73.305-4.4219-73.922-4.4219s-38.137 0.39063-73.695 4.0312c-0.78906 0.035157-1.5781 0.12891-2.3516 0.27734-11.281 1.1523-22.496 2.875-33.602 5.1523-0.28125 0-0.50391-0.39062-0.83984-0.55859-0.33594-0.16797-2.1289-1.2891-9.1289-0.50391l-0.61719-5.2656h0.003906c-0.17188-1.2422-1.1211-2.2344-2.3555-2.4609-10.844-1.8203-21.914-1.8203-32.758 0-9.9727 2.293-19.453 6.3516-28 11.984-0.80859 0.50391-1.2969 1.3945-1.2891 2.3516v4.5352c-3.0234 0.72656-5.207 1.457-6.7773 1.9609h0.003906c-2.4648 0.86328-4.4805 2.6797-5.6016 5.0391-8.9883 18.02-16.77 36.613-23.297 55.664-9.1914 27.203-16.324 55.055-21.336 83.328-7.7266 43.344-8.1758 80.863-1.5117 113.73 3.6953 18.871 12.266 32.535 24.754 39.535 2.7422 1.5703 5.7656 2.5781 8.9023 2.9688l22.398 3.4141v0.003907c0.71094 0.054687 1.4219 0.054687 2.1289 0 5.3594-0.058594 10.293-2.9297 12.992-7.5625 9.2891-16.621 17.355-33.895 24.137-51.688 3.6406-8.8477 7.3359-18.031 11.199-26.879l0.33594-0.72656c2.8789-7.6367 7.5469-14.473 13.609-19.938 7.7148-5.4727 17.039-8.2148 26.488-7.7852 5.5703 2.0742 11.469 3.1367 17.414 3.1367h157.64c5.9102 0 11.77-1.0625 17.305-3.1367 9.4883-0.47266 18.863 2.2734 26.602 7.7852 6.1484 5.7539 10.836 12.898 13.66 20.832 4.0898 8.9023 7.8945 18.199 11.535 27.16h0.003906c6.7617 17.699 14.809 34.883 24.078 51.406 2.6602 4.5625 7.4883 7.4258 12.77 7.5625 0.6875 0.054687 1.3828 0.054687 2.0703 0l22.398-3.4141 0.003907-0.003906c3.2344-0.36719 6.3477-1.4375 9.125-3.1367 12.434-7 21-20.664 24.809-39.535 6.6094-32.871 6.1055-70.223-1.5117-113.73zm-328.11-151.2h0.003906c2.9727-2.9414 7.0195-4.5391 11.199-4.4258h2.0156c11.59-1.2891 22.793-2.1289 33.992-2.7422h76.887c11.199 0.61719 23.742 1.457 36.062 2.7422h1.9062c4.1758-0.10156 8.2188 1.4961 11.199 4.4258 1.5117 2.7773 1.8164 6.0586 0.83984 9.0703l-1.9023 9.3516c-0.89453 4.5352-1.793 9.1289-2.7422 13.664l-2.8555 13.105c-1.3984 6.4961-2.8555 12.938-4.1445 19.434-2.0703 10.078-4.0312 19.543-13.047 24.078h-0.003906c-4.8828 2.1133-10.207 2.9961-15.512 2.5742h-94.527c-5.3086 0.42188-10.641-0.48438-15.512-2.6289-9.0703-4.4805-11.199-13.945-12.992-24.023-1.2891-6.1602-2.6328-12.375-3.9766-18.535-1.0625-4.6484-2.0703-9.3516-3.0234-14-1.5664-7.2812-3.0234-14.559-4.4258-21.84v-1.1797c-1.0703-2.9336-0.86719-6.1836 0.5625-8.9609zm83.441 109.48v-0.003907c0-1.6992 1.3789-3.0781 3.082-3.0781 1.6992 0 3.0781 1.3789 3.0781 3.0781 0 1.7031-1.3789 3.082-3.0781 3.082-1.7031 0-3.082-1.3789-3.082-3.082zm0 9.6328v-0.003906c0.035156 1.293-0.74609 2.4727-1.9492 2.9453-1.2031 0.47656-2.5742 0.14844-3.4336-0.82031-0.85938-0.96875-1.0195-2.3711-0.40625-3.5078 0.61719-1.1406 1.8789-1.7734 3.1562-1.5859 1.5781 0.19141 2.7852 1.4961 2.8594 3.082zm8.793-3.0781v-0.003906c1.6992 0 3.0781 1.3789 3.0781 3.0781 0 1.7031-1.3789 3.082-3.0781 3.082-1.7031 0-3.082-1.3789-3.082-3.082 0-1.6992 1.3789-3.0781 3.082-3.0781zm-181.16 109.81c-8.3438 20.438-15.062 41.773-21.504 62.496l-0.83984 2.6875c-1.9023 6.2148-4.7031 9.8008-8.2305 10.695-0.80078 0.10547-1.6094 0.10547-2.4102 0h-0.78516c-2.3086-0.33594-4.5352-1.1133-6.5508-2.2969-13.945-7.6719-19.543-23.574-22.008-35.613-6.5508-32.48-6.0469-68.992 1.5117-111.66 4.6797-27.973 11.477-55.547 20.328-82.488 6.4414-18.824 14.133-37.195 23.016-54.992 0.53125-1.0469 1.4609-1.832 2.5781-2.1836 2.1484-0.75391 4.332-1.3906 6.5508-1.9062 19.387-4.8594 39.09-8.3398 58.969-10.414l4.5352-0.50391c2.4062-0.28125 5.0391-0.44922 5.9922-0.44922h0.28125l1.5664 1.0625c4.1016 3.5664 6.8984 8.3906 7.9531 13.723 1.457 5.6016 2.5742 10.922 3.6953 16.352l0.78516 3.8086c1.9023 9.0156 3.7539 18.09 5.6016 27.16 1.457 6.1055 3.8086 23.855-2.6328 31.922-3.1914 3.9766-6.4961 7.8398-9.7422 11.703l-3.8086 4.5938c-4.2578 4.9297-7.9531 9.5742-11.199 14.281-0.83984 1.1211-1.6797 2.2383-2.4062 3.3047-21.512 30.234-37.414 65.289-51.246 98.723zm96.602-32.031c-5.457 0-10.871-1.0078-15.961-2.9688-8.4766-3.2344-15.773-8.9648-20.926-16.434-5.1484-7.4688-7.9102-16.328-7.9141-25.398-0.027344-6.3984 1.3516-12.727 4.0312-18.539 0.67188-1.0078 1.3984-2.0156 2.2383-3.1367 3.2461-4.3672 6.832-8.8477 10.863-13.609l0.003906 0.003906c11.395-8.918 26.398-11.785 40.281-7.6914 13.879 4.0938 24.93 14.641 29.664 28.316s2.5703 28.797-5.8125 40.598c-8.3789 11.797-21.941 18.82-36.414 18.859zm55.215-81.145c-1.6641-0.085937-2.9961-1.418-3.082-3.082 0-1.6992 1.3789-3.0781 3.082-3.0781 1.6992 0 3.0781 1.3789 3.0781 3.0781-0.082032 1.6641-1.4141 2.9961-3.0781 3.082zm5.8789 9.6328v-0.003907c-1.2461 0-2.3672-0.75-2.8438-1.8984-0.47656-1.1523-0.21484-2.4766 0.66797-3.3594 0.87891-0.87891 2.2031-1.1445 3.3555-0.66797 1.1523 0.48047 1.9023 1.6016 1.9023 2.8477-0.085937 1.6641-1.418 2.9961-3.082 3.0781zm2.8555-12.711v-0.003906c0-1.6992 1.3789-3.0781 3.082-3.0781 1.6992 0 3.0781 1.3789 3.0781 3.0781 0 1.7031-1.3789 3.082-3.0781 3.082-1.7031 0-3.082-1.3789-3.082-3.082zm23.91 65.016-18.027-0.003906c-1.5469 0-2.8008-1.2539-2.8008-2.8008 0-1.543 1.2539-2.7969 2.8008-2.7969h18.031c0.74219 0 1.4531 0.29297 1.9805 0.82031 0.52344 0.52344 0.82031 1.2344 0.82031 1.9766 0 0.74609-0.29688 1.457-0.82031 1.9805-0.52734 0.52734-1.2383 0.82031-1.9805 0.82031zm2.8008-61.938h0.003907c-1.668-0.085937-2.9961-1.418-3.082-3.082 0-1.6992 1.3789-3.0781 3.082-3.0781 1.6992 0 3.0781 1.3789 3.0781 3.0781-0.082031 1.6641-1.4141 2.9961-3.0781 3.082zm5.9375 9.6328v-0.003907c-1.6992 0-3.0781-1.3789-3.0781-3.0781 0-1.7031 1.3789-3.082 3.0781-3.082 1.7031 0 3.082 1.3789 3.082 3.082 0 1.6992-1.3789 3.0781-3.082 3.0781zm5.8789-9.6328c-1.6523-0.10938-2.9688-1.4258-3.0781-3.082 0.13281-1.6406 1.4375-2.9492 3.0781-3.0781 1.6562 0.10938 2.9727 1.4258 3.082 3.0781-0.085938 1.6641-1.4141 2.9961-3.082 3.082zm71.008 78.398h0.003906c-5.0938 1.9648-10.504 2.9688-15.961 2.9688-16.008 0-30.797-8.5391-38.801-22.402-8-13.859-8-30.938 0-44.797 8.0039-13.863 22.793-22.402 38.801-22.402 10.152-0.10156 20.035 3.2773 28 9.5781 3.3047 3.9766 7.168 8.6797 10.863 13.664l1.5117 2.0156 0.61719 0.83984c2.6836 5.8477 4.0781 12.211 4.0859 18.648-0.10938 9.0703-2.9453 17.898-8.1406 25.34-5.1914 7.4375-12.5 13.145-20.977 16.379zm142.97 72.801c-2.4062 12.039-8.1758 28-22.062 35.785-2.0938 1.2344-4.418 2.0156-6.832 2.293-0.92578 0.17188-1.875 0.17188-2.8008 0-3.6406-0.89453-6.4414-4.4805-8.3438-10.695l-0.33594-1.0078c-6.6094-21.223-13.441-43.23-22.062-64.176-1.7344-4.1445-3.4727-8.3984-5.2656-12.602l-2.0156-4.9805-3.4141-7.9531-1.8477-3.9766c-1.2891-2.9102-2.5742-5.6016-3.9219-8.6797l-2.0156-3.8086c-1.3984-2.9102-2.8008-5.6016-4.2578-8.793l-1.9609-3.7539c-1.457-2.9102-2.9102-5.6016-4.4805-8.625-0.67187-1.2891-1.3984-2.4648-2.0703-3.7539-1.5664-2.8008-3.0781-5.6016-4.7617-8.3984l-2.4062-3.9766c-1.5664-2.6328-3.1914-5.2656-4.8164-7.8398l-2.8555-4.1445c-1.5664-2.4062-3.1367-4.8164-4.8164-7.168v-0.39063l-0.78516-1.1211-1.5664-2.1289c-3.8633-5.1523-7.8945-10.023-11.199-14.113l-4.4258-4.8633c-3.1914-3.8086-6.3828-7.5586-9.4648-11.199l0.003906-0.003906c-0.5-0.61719-0.94922-1.2695-1.3438-1.957-5.6016-9.6875-1.9609-26.992-1.3984-29.68v-0.39062c1.793-9.0703 3.6953-18.145 5.6016-27.215l1.0039-4.6523c1.0078-5.1523 2.1289-10.527 3.5273-15.68 1.0273-5.3398 3.8281-10.176 7.9531-13.719 0.42969-0.26953 0.84375-0.57031 1.2305-0.89844 2.2266-0.125 4.457-0.03125 6.6641 0.28125l4.9844 0.61719c19.766 2.0117 39.363 5.457 58.633 10.301h0.33594l6.1055 1.8477-0.003906 0.003906c1.1211 0.34766 2.0508 1.1328 2.5781 2.1836 8.8555 17.746 16.527 36.062 22.961 54.824 8.8789 26.863 15.711 54.363 20.438 82.262 7.5039 43.066 8.0078 79.578 1.5117 111.89z"/>
    <path d="m230.83 163.13c0.58594 2.6445 2.8906 4.5586 5.6016 4.6484 0.40625 0.054687 0.82031 0.054687 1.2305 0 3.1992-0.69922 5.2305-3.8555 4.5352-7.0586l-2.2383-10.191c-0.32422-1.5312-1.2422-2.8711-2.5586-3.7227-1.3125-0.85156-2.9141-1.1445-4.4414-0.8125-3.1797 0.72656-5.1992 3.8594-4.5352 7.0547z"/>
    <path d="m299.49 277.65c0 15.586-12.637 28.223-28.223 28.223-15.59 0-28.227-12.637-28.227-28.223 0-15.59 12.637-28.223 28.227-28.223 15.586 0 28.223 12.633 28.223 28.223"/>
    <path d="m202.55 172.93h-1.0625c-2.5078-0.33984-5.0508-0.33984-7.5586 0h-1.0664c-1.4727 0.21484-2.8242 0.94922-3.8086 2.0703-0.99609 1.168-1.5156 2.668-1.4531 4.1992l0.55859 7.9531c0.050782 1.4375 0.65234 2.8008 1.6797 3.8086l5.9375 6.2148c1.0664 1.0625 2.793 1.0625 3.8633 0l5.9922-6.2148c0.96875-1.0469 1.5586-2.3867 1.6797-3.8086l0.50391-7.9531c0.125-1.6094-0.39844-3.2031-1.457-4.4219-1.0156-1.0391-2.3633-1.6914-3.8086-1.8477z"/>
    <path d="m205.63 229.99-5.9922-5.9922c-0.5-0.53906-1.1992-0.84375-1.9336-0.84375s-1.4336 0.30469-1.9297 0.84375l-5.9375 6.1602c-1 1.0234-1.5977 2.3789-1.6797 3.8086l-0.55859 7.7852c-0.23828 3.2148 2.0664 6.0586 5.2617 6.4922h1.0664c2.5078 0.33984 5.0508 0.33984 7.5586 0h1.0625c1.4844-0.1875 2.8438-0.92969 3.8086-2.0703 0.94531-1.1094 1.4609-2.5195 1.457-3.9766v-0.44922l-0.50391-7.9531v0.003906c-0.13281-1.418-0.72266-2.7539-1.6797-3.8086z"/>
    <path d="m233.3 219.24c1.1406-0.96484 1.8789-2.3242 2.0703-3.8047v-1.0664c0.33594-2.5078 0.33594-5.0508 0-7.5586v-1.0664c-0.19141-1.4805-0.92969-2.8398-2.0703-3.8047-1.1094-0.94531-2.5195-1.4609-3.9766-1.457h-0.44922l-7.6719 0.55859c-1.4297 0.082032-2.7812 0.67969-3.8086 1.6797l-6.1602 5.9375c-0.53516 0.49609-0.84375 1.1992-0.84375 1.9336 0 0.73047 0.30859 1.4336 0.84375 1.9297l5.8828 5.8789c1.0508 0.96094 2.3867 1.5508 3.8086 1.6797l7.9531 0.50391-0.003906 0.003907c1.5938 0.15234 3.1875-0.32813 4.4258-1.3477z"/>
    <path d="m178.3 202.72c-1.0078-1.0273-2.3711-1.6289-3.8086-1.6797l-7.9531-0.55859c-1.6094-0.125-3.2031 0.39844-4.4219 1.457-1.1211 0.98047-1.8555 2.332-2.0742 3.8047v1.0664c-0.33594 2.5078-0.33594 5.0508 0 7.5586v1.0664c0.21875 1.4727 0.95312 2.8242 2.0742 3.8047 1.1094 0.94531 2.5195 1.4609 3.9766 1.457h0.44922l7.9531-0.50391h-0.003906c1.4219-0.11719 2.7617-0.71094 3.8086-1.6797l6.2148-5.7109c1.0625-1.0703 1.0625-2.7969 0-3.8633z"/>
    <path d="m462 167.66c0.41016 0.054688 0.82422 0.054688 1.2305 0 2.7578 0.039063 5.1328-1.9297 5.6016-4.6484l2.2383-10.191c0.55469-3.1406-1.4688-6.1562-4.582-6.832-3.1172-0.67578-6.207 1.2266-7.0078 4.3125l-2.1836 10.191c-0.36328 1.5781-0.066406 3.2344 0.82031 4.5898 0.89062 1.3516 2.293 2.2852 3.8828 2.5781z"/>
    <path d="m457.02 277.65c0 15.586-12.637 28.223-28.223 28.223-15.59 0-28.227-12.637-28.227-28.223 0-15.59 12.637-28.223 28.227-28.223 15.586 0 28.223 12.633 28.223 28.223"/>
    <path d="m516.04 179.93c0 7.5156-6.0898 13.605-13.605 13.605s-13.609-6.0898-13.609-13.605c0-7.5156 6.0938-13.609 13.609-13.609s13.605 6.0938 13.605 13.609"/>
    <path d="m502.43 227.7c-5.5117 0-10.477 3.3242-12.578 8.4141-2.1055 5.0938-0.92969 10.949 2.9727 14.836 3.9062 3.8867 9.7656 5.0391 14.852 2.9141 5.082-2.125 8.3828-7.1016 8.3594-12.613 0-3.6016-1.4336-7.0586-3.9883-9.6016-2.5547-2.543-6.0156-3.9648-9.6172-3.9492z"/>
    <path d="m533.06 197.01c-5.5039 0-10.465 3.3164-12.57 8.4023-2.1055 5.082-0.94141 10.938 2.9492 14.828s9.7461 5.0547 14.832 2.9492c5.082-2.1055 8.3984-7.0664 8.3984-12.57 0.015625-3.6133-1.4141-7.0859-3.9688-9.6406-2.5547-2.5547-6.0273-3.9844-9.6406-3.9688z"/>
    <path d="m471.74 197.01c-5.5039 0-10.465 3.3164-12.57 8.4023-2.1055 5.082-0.94141 10.938 2.9492 14.828s9.7461 5.0547 14.832 2.9492c5.082-2.1055 8.3984-7.0664 8.3984-12.57 0.015626-3.6133-1.4141-7.0859-3.9688-9.6406-2.5547-2.5547-6.0234-3.9844-9.6406-3.9688z"/>
    </g>
</svg>