<?xml version="1.0" encoding="UTF-8"?>
<svg class="w-6 h-6 mx-2" version="1.1" viewBox="220 150 260 260"  stroke="currentColor">
    <g>
    <path d="m272.95 294.39c-0.38281-4.957-4.5195-8.7891-9.4922-8.7891-4.9766 0-9.1133 3.832-9.4922 8.7891-0.20313 2.6445 0.70312 5.2539 2.5078 7.1992 1.8008 1.9453 4.332 3.0508 6.9844 3.0508s5.1836-1.1055 6.9844-3.0508c1.8008-1.9453 2.7109-4.5547 2.5078-7.1992z"/>
    <path d="m282.46 284.93c5.2344-0.03125 9.4648-4.2852 9.4648-9.5234-0.38281-4.957-4.5195-8.7891-9.4922-8.7891-4.9766 0-9.1133 3.832-9.4922 8.7891 0.027344 5.2461 4.2734 9.4922 9.5195 9.5234z"/>
    <path d="m324.35 155.51h-29.121c-17.219-0.86719-34.023 5.4844-46.367 17.527-18.984 19.434-18.535 47.77-18.48 48.777v116.2c0 1.1758-0.50391 29.512 18.48 48.945 12.344 12.043 29.148 18.395 46.367 17.527h29.121c4.4648-0.03125 8.0664-3.6562 8.0625-8.1211v-232.73c0.003907-4.4648-3.5977-8.0898-8.0625-8.1211zm-7.9531 232.79h-21.168c-12.84 0.78125-25.438-3.7539-34.832-12.543-14.223-14.504-13.945-37.184-13.945-37.574l0.003906-116.54s-0.16797-22.906 13.941-37.41c9.3672-8.7578 21.918-13.293 34.723-12.543h21.277z"/>
    <path d="m291.93 294.39c-0.20313 2.6445 0.70312 5.2539 2.5039 7.1992 1.8047 1.9453 4.3359 3.0508 6.9883 3.0508 2.6484 0 5.1797-1.1055 6.9844-3.0508 1.8008-1.9453 2.707-4.5547 2.5039-7.1992-0.37891-4.957-4.5156-8.7891-9.4883-8.7891-4.9766 0-9.1133 3.832-9.4922 8.7891z"/>
    <path d="m282.46 303.91c-3.8398-0.019531-7.3164 2.2656-8.8203 5.8008-1.5 3.5352-0.72656 7.625 1.9531 10.375 2.6836 2.7461 6.7578 3.6094 10.324 2.1953 3.5703-1.418 5.9375-4.8398 6.0078-8.6797 0.042968-2.5469-0.93359-5.0039-2.7109-6.8203-1.7773-1.8203-4.2109-2.8555-6.7539-2.8711z"/>
    <path d="m261.24 227.14c0 5.6289 2.2383 11.027 6.2188 15.008s9.3789 6.2148 15.008 6.2148 11.027-2.2344 15.008-6.2148c3.9805-3.9805 6.2148-9.3789 6.2148-15.008 0-5.6289-2.2344-11.027-6.2148-15.008-3.9805-3.9805-9.3789-6.2188-15.008-6.2188s-11.027 2.2383-15.008 6.2188c-3.9805 3.9805-6.2188 9.3789-6.2188 15.008zm29.512 0h0.003906c0 3.3516-2.0195 6.375-5.1172 7.6562-3.0977 1.2812-6.6641 0.57422-9.0352-1.7969-2.3672-2.3711-3.0781-5.9336-1.793-9.0312 1.2812-3.0977 4.3047-5.1172 7.6562-5.1172 4.5625 0.03125 8.2578 3.7227 8.2891 8.2891z"/>
    <path d="m469.62 338.18v-116.2c0-1.1758 0.50391-29.512-18.48-48.945-12.344-12.043-29.148-18.395-46.367-17.527h-29.066c-4.4844 0-8.1172 3.6367-8.1172 8.1211v232.73c0 4.4844 3.6328 8.1211 8.1172 8.1211h29.066c17.219 0.86719 34.023-5.4844 46.367-17.527 18.984-19.434 18.535-47.77 18.48-48.777zm-30.016 37.465c-9.3438 8.8516-21.934 13.434-34.777 12.656h-21.223v-216.61h21c12.895-0.82812 25.562 3.7109 35 12.543 14.223 14.504 13.945 37.184 13.945 37.574l-0.003906 116.59c-0.0625 13.68-5.0078 26.887-13.941 37.242z"/>
    <path d="m410.2 234.41c0.023437-3.8555-2.2812-7.3438-5.8359-8.832-3.5586-1.4922-7.6602-0.69141-10.395 2.0273s-3.5586 6.8164-2.0898 10.379c1.4727 3.5664 4.9453 5.8906 8.8008 5.8906 5.2344 0 9.4883-4.2266 9.5195-9.4648z"/>
    <path d="m419.66 243.88c-3.8516 0-7.3203 2.3203-8.7969 5.8789-1.4727 3.5547-0.65625 7.6523 2.0664 10.375 2.7227 2.7227 6.8164 3.5352 10.375 2.0625 3.5547-1.4727 5.875-4.9453 5.875-8.7969 0-2.5234-1.0039-4.9453-2.7891-6.7305-1.7852-1.7852-4.207-2.7891-6.7305-2.7891z"/>
    <path d="m438.65 224.89c-3.8516 0-7.3203 2.3203-8.7969 5.8789-1.4727 3.5586-0.65625 7.6523 2.0664 10.375 2.7227 2.7227 6.8164 3.5352 10.375 2.0625 3.5547-1.4727 5.875-4.9453 5.875-8.7969 0-2.5234-1.0039-4.9453-2.7891-6.7305s-4.207-2.7891-6.7305-2.7891z"/>
    <path d="m419.66 224.89c3.8594 0.023438 7.3516-2.2852 8.8398-5.8477 1.4883-3.5625 0.67578-7.6719-2.0508-10.402-2.7305-2.7305-6.8398-3.5391-10.402-2.0547-3.5625 1.4883-5.875 4.9805-5.8516 8.8438 0.03125 5.2109 4.25 9.4336 9.4648 9.4609z"/>
    <path d="m419.66 280.39c-5.6484 0-11.062 2.2461-15.055 6.2422-3.9922 3.9922-6.2305 9.4102-6.2266 15.059 0.007813 5.6445 2.2539 11.059 6.2539 15.047s9.418 6.2227 15.066 6.2148c5.6445-0.011719 11.059-2.2656 15.043-6.2656 3.9844-4.0039 6.2109-9.4258 6.1992-15.07 0-5.6406-2.2461-11.047-6.2383-15.027-3.9922-3.9844-9.4062-6.2109-15.043-6.1992zm0 29.566v0.003907c-3.375 0-6.418-2.0352-7.707-5.1523-1.293-3.1172-0.57812-6.707 1.8086-9.0938 2.3828-2.3867 5.9727-3.0977 9.0898-1.8086 3.1211 1.293 5.1523 4.3359 5.1523 7.7109 0 2.2109-0.87891 4.3359-2.4453 5.8984-1.5625 1.5664-3.6836 2.4453-5.8984 2.4453z"/>
    </g>
</svg>